<svg xmlns="http://www.w3.org/2000/svg" xmlns:xlink="http://www.w3.org/1999/xlink" width="500" zoomAndPan="magnify" viewBox="0 0 375 374.999991" height="500" preserveAspectRatio="xMidYMid meet" version="1.0"><defs><clipPath id="c73016b707"><path d="M 112.5 112.5 L 262.5 112.5 L 262.5 262 L 112.5 262 Z M 112.5 112.5 " clip-rule="nonzero"/></clipPath><clipPath id="18c70816d0"><path d="M 156 141 L 221 141 L 221 262.5 L 156 262.5 Z M 156 141 " clip-rule="nonzero"/></clipPath></defs><g clip-path="url(#c73016b707)"><path fill="#100f0d" d="M 262.5 187.5 C 262.5 146.078125 228.921875 112.5 187.5 112.5 C 146.078125 112.5 112.5 146.078125 112.5 187.5 C 112.5 224.933594 139.925781 255.960938 175.78125 261.589844 L 175.78125 209.179688 L 156.738281 209.179688 L 156.738281 187.5 L 175.78125 187.5 L 175.78125 170.976562 C 175.78125 152.179688 186.976562 141.796875 204.109375 141.796875 C 212.316406 141.796875 220.898438 143.261719 220.898438 143.261719 L 220.898438 161.71875 L 211.441406 161.71875 C 202.125 161.71875 199.21875 167.5 199.21875 173.429688 L 199.21875 187.5 L 220.019531 187.5 L 216.695312 209.179688 L 199.21875 209.179688 L 199.21875 261.589844 C 235.074219 255.960938 262.5 224.933594 262.5 187.5 " fill-opacity="1" fill-rule="nonzero"/></g><g clip-path="url(#18c70816d0)"><path fill="#ffffff" d="M 216.695312 209.179688 L 220.019531 187.5 L 199.21875 187.5 L 199.21875 173.429688 C 199.21875 167.5 202.125 161.71875 211.441406 161.71875 L 220.898438 161.71875 L 220.898438 143.261719 C 220.898438 143.261719 212.316406 141.796875 204.109375 141.796875 C 186.976562 141.796875 175.78125 152.179688 175.78125 170.976562 L 175.78125 187.5 L 156.738281 187.5 L 156.738281 209.179688 L 175.78125 209.179688 L 175.78125 261.589844 C 179.597656 262.1875 183.511719 262.5 187.5 262.5 C 191.488281 262.5 195.402344 262.1875 199.21875 261.589844 L 199.21875 209.179688 L 216.695312 209.179688 " fill-opacity="1" fill-rule="nonzero"/></g></svg>