<svg xmlns="http://www.w3.org/2000/svg" xmlns:xlink="http://www.w3.org/1999/xlink" width="500" zoomAndPan="magnify" viewBox="0 0 375 374.999991" height="500" preserveAspectRatio="xMidYMid meet" version="1.0"><defs><clipPath id="8d86ff9f17"><path d="M 112.5 112.5 L 262.5 112.5 L 262.5 262.5 L 112.5 262.5 Z M 112.5 112.5 " clip-rule="nonzero"/></clipPath></defs><g clip-path="url(#8d86ff9f17)"><path fill="#000000" d="M 187.5 112.5 C 146.070312 112.5 112.5 146.070312 112.5 187.5 C 112.5 228.929688 146.070312 262.5 187.5 262.5 C 228.929688 262.5 262.5 228.929688 262.5 187.5 C 262.433594 146.070312 228.863281 112.5 187.5 112.5 Z M 230.683594 208.472656 C 229.835938 213.992188 225.03125 218.019531 219.449219 218.019531 L 155.488281 218.019531 C 149.902344 218.019531 145.097656 213.992188 144.253906 208.472656 C 143.472656 203.34375 142.695312 196.203125 142.628906 187.433594 C 142.695312 178.667969 143.410156 171.589844 144.253906 166.394531 C 145.097656 160.875 149.902344 156.851562 155.488281 156.851562 L 219.449219 156.851562 C 225.03125 156.851562 229.835938 160.875 230.683594 166.394531 C 231.460938 171.527344 232.242188 178.667969 232.304688 187.433594 C 232.242188 196.203125 231.460938 203.34375 230.683594 208.472656 Z M 230.683594 208.472656 " fill-opacity="1" fill-rule="nonzero"/></g><path fill="#000000" d="M 178.019531 175.292969 L 178.019531 199.644531 L 200.683594 187.5 Z M 178.019531 175.292969 " fill-opacity="1" fill-rule="nonzero"/></svg>